<?xml version="1.0" encoding="UTF-8"?>
<!--Generator: Apple Native CoreSVG 175.5-->
<!DOCTYPE svg
PUBLIC "-//W3C//DTD SVG 1.1//EN"
			 "http://www.w3.org/Graphics/SVG/1.1/DTD/svg11.dtd">
<svg version="1.1" xmlns="http://www.w3.org/2000/svg" xmlns:xlink="http://www.w3.org/1999/xlink" width="281.641" height="159.082">
 <g>
	<rect height="159.082" opacity="0" width="281.641" x="0" y="0"/>
	<path d="M0 147.949C0 154.102 4.98047 159.082 11.0352 159.082L270.605 159.082C276.66 159.082 281.641 154.102 281.641 147.949C281.641 141.797 276.66 136.816 270.605 136.816L249.219 136.816L249.219 20.8984C249.219 7.22656 241.895 0.195312 228.32 0.195312L53.3203 0.195312C40.4297 0.195312 32.4219 7.22656 32.4219 20.8984L32.4219 136.816L11.0352 136.816C4.98047 136.816 0 141.797 0 147.949ZM48.1445 136.816L48.1445 25.293C48.1445 19.043 51.2695 15.918 57.5195 15.918L224.121 15.918C230.371 15.918 233.496 19.043 233.496 25.293L233.496 136.816Z" fill="#000000" fill-opacity="0.85"/>
 </g>
</svg>
