<?xml version="1.0" encoding="UTF-8"?>
<!--Generator: Apple Native CoreSVG 175.5-->
<!DOCTYPE svg
PUBLIC "-//W3C//DTD SVG 1.1//EN"
			 "http://www.w3.org/Graphics/SVG/1.1/DTD/svg11.dtd">
<svg version="1.1" xmlns="http://www.w3.org/2000/svg" xmlns:xlink="http://www.w3.org/1999/xlink" width="125.488" height="206.934">
 <g>
	<rect height="206.934" opacity="0" width="125.488" x="0" y="0"/>
	<path d="M26.5625 206.738L98.9258 206.738C114.844 206.738 125.488 196.582 125.488 181.348L125.488 25.3906C125.488 10.1562 114.844 0 98.9258 0L26.5625 0C10.6445 0 0 10.1562 0 25.3906L0 181.348C0 196.582 10.6445 206.738 26.5625 206.738ZM28.6133 191.016C20.3125 191.016 15.7227 186.621 15.7227 178.809L15.7227 27.9297C15.7227 20.1172 20.3125 15.7227 28.6133 15.7227L96.9727 15.7227C105.176 15.7227 109.766 20.1172 109.766 27.9297L109.766 178.809C109.766 186.621 105.176 191.016 96.9727 191.016ZM42.0898 183.887L83.5938 183.887C86.2305 183.887 88.0859 182.031 88.0859 179.297C88.0859 176.562 86.2305 174.805 83.5938 174.805L42.0898 174.805C39.4531 174.805 37.5 176.562 37.5 179.297C37.5 182.031 39.4531 183.887 42.0898 183.887ZM50.9766 37.207L74.6094 37.207C78.418 37.207 81.4453 34.1797 81.4453 30.2734C81.4453 26.4648 78.418 23.4375 74.6094 23.4375L50.9766 23.4375C47.0703 23.4375 44.043 26.4648 44.043 30.2734C44.043 34.1797 47.0703 37.207 50.9766 37.207Z" fill="#000000" fill-opacity="0.85"/>
 </g>
</svg>
